<?xml version="1.0" standalone="no"?><!DOCTYPE svg PUBLIC "-//W3C//DTD SVG 1.1//EN" "http://www.w3.org/Graphics/SVG/1.1/DTD/svg11.dtd"><svg t="1758786560159" class="icon" viewBox="0 0 1148 1024" version="1.1" xmlns="http://www.w3.org/2000/svg" p-id="8918" xmlns:xlink="http://www.w3.org/1999/xlink" width="224.21875" height="200"><path d="M617.593753 173.101395c72.095919-76.72808 193.921737-75.996686 252.68191-65.723042 141.778239 24.789372 252.330841 162.26214 227.536594 304.025752a259.820313 259.820313 0 0 1-2.20881 10.970906c-0.614371 4.368859-1.131222 8.757221-2.023522 13.25773-71.432789 356.773868-475.006104 542.182182-610.255436 518.53866-130.631798-22.838989-448.16883-316.439941-413.661673-681.917394 0.43396-4.578525 1.696833-8.849864 2.584258-13.169963 0.492472-3.686224 1.004447-7.377325 1.657826-11.068426C98.689396 106.237379 251.414161 19.425818 393.177772 44.21519c82.73526 14.471844 169.556573 36.403905 224.415981 128.886205z" fill="#FF8B8E" p-id="8919"></path><path d="M508.855007 985.445798c-10.985534 0-21.26893-0.824037-30.567383-2.452607-80.921404-14.145155-198.992734-106.154488-287.130555-223.743098-112.746783-150.418437-166.236046-324.348745-150.618352-489.746127 0.492472-5.178268 1.521299-9.620266 2.355088-13.189467l0.511976-2.233189c0.502224-3.725232 1.033703-7.445588 1.696833-11.175696C68.224408 110.586734 196.86194 10.751488 344.306043 10.751488c18.133689 0 36.272254 1.565183 53.91347 4.651664 77.474101 13.545412 163.729803 34.863102 224.752422 113.614704 62.84135-47.925794 142.13906-55.790715 187.368449-55.790714 28.480472 0 51.056159 2.901195 64.97702 5.339174 75.694376 13.233351 146.561554 56.673263 194.423961 119.178172 49.944441 65.225694 70.155288 142.894834 56.892681 218.706233a277.568801 277.568801 0 0 1-2.199057 11.068426l-0.22917 1.643198c-0.497348 3.642341-1.053207 7.767402-1.926004 12.16064-39.431875 196.939955-169.088482 328.527442-270.917994 404.246197-112.493234 83.656816-250.131784 139.871739-342.482434 139.881492l-0.02438-0.004876zM344.306043 69.262987c-119.412218 0-223.27013 79.014904-241.579354 183.794372-0.594867 3.354659-1.038579 6.631303-1.477415 9.907947-0.092643 0.682634-0.20479 1.360392-0.346193 2.033275-0.312061 1.526175-0.668006 3.05235-1.019075 4.583401-0.502224 2.145422-0.975192 4.17382-1.092215 5.431817-19.221028 203.58101 78.956393 368.788229 139.184229 449.148898 88.196334 117.671501 194.833541 191.483758 250.39021 201.201543 5.977925 1.043455 12.87253 1.574935 20.488777 1.574934h0.019504c92.774858-0.014628 224.474492-66.532451 307.575449-128.32547 93.594019-69.594553 212.674673-190.064854 248.444702-368.71509 0.565611-2.871939 0.936184-5.753631 1.326261-8.610942l0.40958-2.97921c0.102395-0.746022 0.238922-1.492043 0.399829-2.233189 0.71189-3.213257 1.389648-6.460645 1.965011-9.727537 10.405295-59.486691-5.831646-120.943269-45.716985-173.028256-39.041798-50.98302-96.646369-86.377601-158.044436-97.114461-11.643788-2.033275-30.616142-4.461502-54.90329-4.461502-42.474473 0-121.221199 7.977068-171.41919 61.398067a29.25575 29.25575 0 0 1-46.48251-5.110005c-48.452398-81.677177-124.283301-101.0006-204.2929-114.989724a254.461635 254.461635 0 0 0-43.829989-3.778868z" p-id="8920"></path><path d="M538.539841 376.370344a29.25575 29.25575 0 0 1-29.25575-29.255749c0-113.385534 84.958697-192.307795 88.576658-195.613695a29.25575 29.25575 0 0 1 39.524518 43.147355c-1.062959 0.984944-69.584801 65.567011-69.5848 152.46634a29.265502 29.265502 0 0 1-29.260626 29.255749zM670.429637 726.995629a29.265502 29.265502 0 0 1-11.253712-56.273435c93.56964-38.949155 156.903462-155.728356 157.53246-156.903462a29.270378 29.270378 0 0 1 39.573278-12.024113 29.250874 29.250874 0 0 1 12.063121 39.544022c-2.949955 5.543965-73.568459 136.317166-186.680939 183.399419a29.265502 29.265502 0 0 1-11.234208 2.257569z" p-id="8921"></path><path d="M541.197238 388.433465c5.558592 14.818037 64.216371 55.425018 126.3117-72.061787 63.285063-118.695453 169.117737-142.041541 220.066625-133.123414 122.942412 21.4981 217.789553 146.556678 195.018828 276.730137a266.324842 266.324842 0 0 1-2.004019 10.068854c-0.570487 4.012914-1.067835 8.035579-1.88212 12.175268-65.128175 327.669273-417.323518 501.131489-534.600067 480.628084C430.825046 943.039589 157.537336 676.651359 190.679225 341.31708c0.414456-4.203076 1.545679-8.128222 2.355088-12.0875 0.45834-3.388791 0.945936-6.772706 1.540802-10.156622 22.756097-130.192962 154.582506-197.739612 279.109605-189.596762 166.904052 10.917271 177.967602 74.714309 67.512518 258.957269z" fill="#E06969" p-id="8922"></path><path d="M508.855007 992.759735c-11.404866 0-22.112471-0.863045-31.82538-2.559878-82.603609-14.442588-202.561935-107.607523-291.723708-226.561402C71.466921 611.762107 17.470559 436.027694 33.258911 268.816456c0.536355-5.665864 1.62857-10.371163 2.511119-14.154907 0.146279-0.619247 0.292557-1.243369 0.429084-1.862616 0.5071-3.725232 1.043455-7.445588 1.70171-11.17082C61.627237 105.871682 193.361002 3.432675 344.306043 3.432675c18.553021 0 37.115794 1.599314 55.171468 4.758935 77.059645 13.477149 162.67172 34.546164 224.840188 110.733013 63.514233-45.404924 141.17362-53.016294 186.017809-53.016295 29.007076 0 52.031351 2.959707 66.239893 5.446446 77.478977 13.545412 150.003981 57.994648 198.968354 121.937964 51.207314 66.864016 71.905757 146.56643 58.292081 224.411105a285.44835 285.44835 0 0 1-2.199057 11.083053l-0.185286 1.355516a207.847474 207.847474 0 0 1-1.994267 12.589725c-39.890215 199.231656-170.868206 332.20879-273.726547 408.693071-113.663464 84.524737-253.047607 141.315023-346.846416 141.329651l-0.029256 0.004876zM344.306043 76.576925c-115.906404 0-216.668082 76.411142-234.372687 177.738431-0.580239 3.266892-1.009323 6.441141-1.433532 9.61539a37.827684 37.827684 0 0 1-0.429085 2.540374c-0.326689 1.589562-0.692386 3.174249-1.062958 4.763812-0.365697 1.560307-0.863045 3.695976-0.931308 4.466377-18.991858 201.133279 78.156735 364.560773 137.755573 444.073026 87.065111 116.159954 191.625161 188.909252 245.797057 198.383238 5.563468 0.970316 12.033865 1.467663 19.225904 1.467664h0.019504c63.870178-0.009752 185.998305-39.719556 303.211466-126.877311 92.565192-68.833903 210.324461-187.914556 245.636151-364.282843 0.536355-2.701281 0.887424-5.436693 1.257997-8.147727l0.414456-3.023094c0.131651-0.936184 0.302309-1.862616 0.5071-2.789048 0.68751-3.110861 1.340889-6.250979 1.901624-9.415475 10.04935-57.443665-5.690243-116.871844-44.322461-167.313633-37.934955-49.544612-93.886577-83.934746-153.495167-94.359545-16.051655-2.808552-35.102024-4.354231-53.640417-4.354231-41.294491 0-117.778772 7.679634-166.089767 59.096615a36.559935 36.559935 0 0 1-58.101919-6.387506c-46.867711-79.005152-120.996905-97.831227-199.265788-111.518042a246.952659 246.952659 0 0 0-42.581743-3.676472z" fill="#5A5A7D" p-id="8923"></path><path d="M538.539841 383.684282a36.569687 36.569687 0 0 1-36.569687-36.569687c0-116.574411 87.245522-197.622589 90.956126-201.016257a36.574563 36.574563 0 0 1 49.417837 53.923223c-1.257997 1.179982-67.234589 63.694643-67.234589 147.093034a36.569687 36.569687 0 0 1-36.569687 36.569687zM670.434513 734.309566a36.569687 36.569687 0 0 1-14.06714-70.340574c91.087777-37.915452 153.275749-152.451712 153.89012-153.602438 9.537374-17.787496 31.693729-24.511442 49.471472-15.013076a36.555059 36.555059 0 0 1 15.071587 49.417838c-3.00359 5.636608-74.826456 138.642998-190.328155 186.719946a36.462416 36.462416 0 0 1-14.037884 2.818304z" fill="#5A5A7D" p-id="8924"></path></svg>